<?xml version="1.0" encoding="UTF-8"?>
<svg width="24px" height="24px" viewBox="0 0 24 24" version="1.1" xmlns="http://www.w3.org/2000/svg">
    <g stroke="none" stroke-width="1" fill="none" fill-rule="evenodd">
        <path d="M19,3 L5,3 C3.895,3 3,3.895 3,5 L3,19 C3,20.105 3.895,21 5,21 L19,21 C20.105,21 21,20.105 21,19 L21,5 C21,3.895 20.105,3 19,3 Z M8.339,18.338 L5.67,18.338 L5.67,9.75 L8.339,9.75 L8.339,18.338 Z M7.004,8.574 C6.172,8.574 5.5,7.901 5.5,7.068 C5.5,6.235 6.172,5.562 7.004,5.562 C7.837,5.562 8.508,6.235 8.508,7.068 C8.508,7.901 7.837,8.574 7.004,8.574 Z M18.338,18.338 L15.669,18.338 L15.669,14.162 C15.669,13.167 15.669,11.884 14.323,11.884 C12.977,11.884 12.752,12.968 12.752,14.088 L12.752,18.338 L10.083,18.338 L10.083,9.75 L12.752,9.75 L12.752,10.792 L12.752,10.792 C13.119,10.042 14.247,9.25 15.803,9.25 C19.012,9.25 19.338,11.162 19.338,13.475 L19.338,18.338 L18.338,18.338 Z" fill="#FFFFFF" fill-rule="nonzero"></path>
        <path d="M19,3 L5,3 C3.895,3 3,3.895 3,5 L3,19 C3,20.105 3.895,21 5,21 L19,21 C20.105,21 21,20.105 21,19 L21,5 C21,3.895 20.105,3 19,3 Z M8.339,18.338 L5.67,18.338 L5.67,9.75 L8.339,9.75 L8.339,18.338 Z M7.004,8.574 C6.172,8.574 5.5,7.901 5.5,7.068 C5.5,6.235 6.172,5.562 7.004,5.562 C7.837,5.562 8.508,6.235 8.508,7.068 C8.508,7.901 7.837,8.574 7.004,8.574 Z M18.338,18.338 L15.669,18.338 L15.669,14.162 C15.669,13.167 15.669,11.884 14.323,11.884 C12.977,11.884 12.752,12.968 12.752,14.088 L12.752,18.338 L10.083,18.338 L10.083,9.75 L12.752,9.75 L12.752,10.792 L12.752,10.792 C13.119,10.042 14.247,9.25 15.803,9.25 C19.012,9.25 19.338,11.162 19.338,13.475 L19.338,18.338 L18.338,18.338 Z" fill="#FFFFFF" fill-rule="nonzero" opacity="0.9"></path>
    </g>
</svg> 